HIERARCHY
ROOT ui
{
	 OFFSET 0 0 0
	 CHANNELS 3 XPosition YPosition Z Position
	 EndSite
	 {
	 OFFSET 0 -1 0
	 }
}
ROOT li
{
	 OFFSET 0 0 0
	 CHANNELS 3 XPosition YPosition Z Position
	 EndSite
	 {
	 OFFSET 0 -1 0
	 }
}
ROOT ul
{
	 OFFSET 0 0 0
	 CHANNELS 3 XPosition YPosition Z Position
	 EndSite
	 {
	 OFFSET 0 -1 0
	 }
}
ROOT ll
{
	 OFFSET 0 0 0
	 CHANNELS 3 XPosition YPosition Z Position
	 EndSite
	 {
	 OFFSET 0 -1 0
	 }
}
ROOT tt
{
	 OFFSET 0 0 0
	 CHANNELS 3 XPosition YPosition Z Position
	 EndSite
	 {
	 OFFSET 0 -1 0
	 }
}
ROOT tb
{
	 OFFSET 0 0 0
	 CHANNELS 3 XPosition YPosition Z Position
	 EndSite
	 {
	 OFFSET 0 -1 0
	 }
}
ROOT td
{
	 OFFSET 0 0 0
	 CHANNELS 3 XPosition YPosition Z Position
	 EndSite
	 {
	 OFFSET 0 -1 0
	 }
}
ROOT v
{
	 OFFSET 0 0 0
	 CHANNELS 3 XPosition YPosition Z Position
	 EndSite
	 {
	 OFFSET 0 -1 0
	 }
}
ROOT bn
{
	 OFFSET 0 0 0
	 CHANNELS 3 XPosition YPosition Z Position
	 EndSite
	 {
	 OFFSET 0 -1 0
	 }
}
MOTION
Frames: 10
Frame Time: 0.002
-0.02986432075500488	-0.0018619049787521361	0		0.3898068542480469	-2.4002041015625	0		-0.8788970336914063	0.39587094116210936	0		-0.57268212890625	-2.886084716796875	0		1.631621826171875	-0.38937298583984375	0		3.112289794921875	-0.20455128479003906	0		4.3221513671875	-0.22452424621582032	0		5.8413125	0.37051727294921877	0		-0.13391046142578125	5.96713818359375	0		
0.045504901885986326	-0.004839995861053467	0		0.416174560546875	-2.4030478515625	0		-0.9435842895507812	0.392126708984375	0		-0.5954382934570313	-2.8937978515625	0		1.59518408203125	-0.3827584228515625	0		3.11874755859375	-0.2029242401123047	0		4.33149267578125	-0.22796090698242188	0		5.8375166015625	0.3613880615234375	0		-0.133519287109375	5.96689306640625	0		
-0.0228606014251709	0.0045018429756164555	0		0.39582830810546876	-2.393814208984375	0		-0.9431546020507813	0.3918724365234375	0		-0.5811156005859375	-2.899372802734375	0		1.601800048828125	-0.3751439819335938	0		3.122063232421875	-0.20823130798339845	0		4.313091796875	-0.22075823974609374	0		5.82994873046875	0.36134402465820314	0		-0.1169297866821289	5.97427001953125	0		
0.01152770709991455	0.0014625560045242309	0		0.42631964111328124	-2.392760498046875	0		-0.8735230102539062	0.39901788330078125	0		-0.5914495849609375	-2.890377685546875	0		1.60633642578125	-0.3714852600097656	0		3.123431884765625	-0.1684837188720703	0		4.330693359375	-0.214389892578125	0		5.83457470703125	0.36901849365234374	0		-0.11650995635986328	5.97401513671875	0		
-0.021967971801757812	0.00399216103553772	0		0.41387469482421874	-2.388714599609375	0		-0.8871412353515625	0.39608306884765626	0		-0.5760384521484375	-2.8929814453125	0		1.5996041259765625	-0.3795699462890625	0		3.11230712890625	-0.1934650421142578	0		4.3311435546875	-0.2146268768310547	0		5.82665478515625	0.35297695922851563	0		-0.13226675415039063	5.96613134765625	0		
0.00445042085647583	0.0021369240283966064	0		0.41433380126953123	-2.3889677734375	0		-0.8866945190429687	0.3958241882324219	0		-0.6136131591796875	-2.894360595703125	0		1.6031458740234374	-0.3758880615234375	0		3.12021630859375	-0.17387306213378906	0		4.32266455078125	-0.2116553955078125	0		5.8271015625	0.352748046875	0		-0.1328215637207031	5.9668984375	0		
-0.02723597717285156	-0.0033759729862213135	0		0.4235783386230469	-2.3984248046875	0		-0.8911359252929687	0.40068075561523436	0		-0.5386148071289063	-2.91534375	0		1.5987310791015625	-0.37002020263671875	0		3.10980224609375	-0.16785958862304687	0		4.3210634765625	-0.21384201049804688	0		5.8143623046875	0.34482403564453123	0		-0.13240570068359375	5.96664453125	0		
0.005331049919128418	0.0016322250366210937	0		0.4001488342285156	-2.39312109375	0		-0.8807266235351563	0.39919451904296877	0		-0.591172607421875	-2.915373779296875	0		1.6111898193359375	-0.369541015625	0		3.112863037109375	-0.14114913940429688	0		4.3198251953125	-0.2000298614501953	0		5.82795556640625	0.35129901123046875	0		-0.11577106475830078	5.9760205078125	0		
-0.016139619827270506	0.005890501976013184	0		0.41879510498046874	-2.384785400390625	0		-0.88620361328125	0.4030789794921875	0		-0.5608961791992187	-2.92331591796875	0		1.6057860107421875	-0.3626446838378906	0		3.117901123046875	-0.15849266052246094	0		4.32025732421875	-0.20025636291503907	0		5.81941064453125	0.35228765869140627	0		-0.11634699249267579	5.97679443359375	0		
0.05615308380126953	-0.0010151230096817016	0		0.3912425231933594	-2.384382568359375	0		-0.895752685546875	0.40405941772460935	0		-0.5635217895507812	-2.926494140625	0		1.603123779296875	-0.36681121826171875	0		3.119252197265625	-0.11873209381103515	0		4.3087119140625	-0.1992021026611328	0		5.81565234375	0.34416769409179687	0		-0.13120132446289062	5.9658974609375	0		
